<svg xmlns="http://www.w3.org/2000/svg" viewBox="0 0 140 140"><defs><style>.a{fill:#64b5f6;}.b{fill:#fff;}</style></defs><title>icons-5k</title><rect class="a" width="140" height="140"/><path class="b" d="M44.8,85.93a10,10,0,0,1-4.34-3.17A7.16,7.16,0,0,1,39,78.32,7.26,7.26,0,0,1,39.06,77a1.07,1.07,0,0,1,.41-.72,1.26,1.26,0,0,1,.79-.29H47a1.62,1.62,0,0,1,1,.27.9.9,0,0,1,.4.64q.44,3,3.89,3a6.15,6.15,0,0,0,3.75-1.25,5.65,5.65,0,0,0,2.16-3.5,5.23,5.23,0,0,0,.09-1.11,3.31,3.31,0,0,0-1-2.54,4,4,0,0,0-2.81-.91,5.68,5.68,0,0,0-2,.31,9.36,9.36,0,0,0-1.63.84,3,3,0,0,1-1.44.57H42.76a.74.74,0,0,1-.7-.38,1.1,1.1,0,0,1-.07-.86l5.28-16.66A2,2,0,0,1,48,53.34,2,2,0,0,1,49.19,53H68.68a1,1,0,0,1,.82.34,1,1,0,0,1,.19.86l-1,4.8a1.6,1.6,0,0,1-.58.86,1.41,1.41,0,0,1-.91.34H53.27l-1.87,5.9a11.22,11.22,0,0,1,2.83-1.22A14.75,14.75,0,0,1,58,64.45a10.42,10.42,0,0,1,4.85,1.15,8.88,8.88,0,0,1,3.48,3.2,8.64,8.64,0,0,1,1.27,4.68,13.81,13.81,0,0,1-5.3,10.6q-4,3-10.73,3A17.66,17.66,0,0,1,44.8,85.93Z"/><path class="b" d="M70.5,86.24a1,1,0,0,1-.19-.86l6.63-31.15a1.51,1.51,0,0,1,.5-.89,1.37,1.37,0,0,1,.94-.36h6.43a1,1,0,0,1,.81.36,1,1,0,0,1,.2.89L83.61,64.55,93.88,53.94a2.5,2.5,0,0,1,2.06-1h7.54a.81.81,0,0,1,.65.26,1,1,0,0,1,.21.65.91.91,0,0,1-.28.67L89.61,69.73,98.39,85a1.08,1.08,0,0,1,.15.48,1,1,0,0,1-.39.76,1.19,1.19,0,0,1-.81.34H90.23a1.76,1.76,0,0,1-1.73-1L81.64,73.76l-2.5,11.62a1.38,1.38,0,0,1-.5.86,1.34,1.34,0,0,1-.89.34H71.32A1,1,0,0,1,70.5,86.24Z"/></svg>