<svg xmlns="http://www.w3.org/2000/svg" viewBox="0 0 140 140"><defs><style>.a{fill:#1976d2;}.b{fill:#fff;}</style></defs><title>icons-10k</title><rect class="a" width="140" height="140"/><path class="b" d="M35.18,86.24a1,1,0,0,1-.2-.86l4.71-21.89-7.2,4.71a1.46,1.46,0,0,1-.77.28,1,1,0,0,1-.91-.57l-2.35-4.23a1.33,1.33,0,0,1-.1-.43,1.53,1.53,0,0,1,.22-.77,1.38,1.38,0,0,1,.6-.57l13-8.59A2.38,2.38,0,0,1,43.29,53h6.38a.91.91,0,0,1,.79.36,1,1,0,0,1,.17.84L44,85.38a1.38,1.38,0,0,1-.53.86,1.43,1.43,0,0,1-.91.34H36A1,1,0,0,1,35.18,86.24Z"/><path class="b" d="M55,84.28a9.33,9.33,0,0,1-3.21-7.49,13.48,13.48,0,0,1,.19-2.35c.19-1.32.48-2.87.86-4.66s.77-3.39,1.15-4.8Q57.21,52.54,69.69,52.5a13.62,13.62,0,0,1,8.88,2.81,9.2,9.2,0,0,1,3.31,7.46A19.56,19.56,0,0,1,81.69,65a90.2,90.2,0,0,1-2,9.46,18,18,0,0,1-5.42,9.33Q70.46,87,63.83,87.06,58.18,87,55,84.28ZM70.41,74.2q1.05-4.08,1.92-8.93a17.23,17.23,0,0,0,.19-2,3.9,3.9,0,0,0-.82-2.69A3.47,3.47,0,0,0,69,59.65a4.94,4.94,0,0,0-3.7,1.42,9.1,9.1,0,0,0-2.11,4.2q-1.07,4-1.92,8.93a10.81,10.81,0,0,0-.19,2.06,3.83,3.83,0,0,0,.81,2.66,3.42,3.42,0,0,0,2.64.89Q69,79.81,70.41,74.2Z"/><path class="b" d="M83.32,86.24a1,1,0,0,1-.19-.86l6.62-31.15a1.52,1.52,0,0,1,.51-.89,1.36,1.36,0,0,1,.93-.36h6.43a1,1,0,0,1,.82.36,1,1,0,0,1,.19.89L96.42,64.55,106.7,53.94a2.5,2.5,0,0,1,2.06-1h7.54a.79.79,0,0,1,.64.26,1,1,0,0,1,.22.65.92.92,0,0,1-.29.67L102.42,69.73,111.21,85a1.19,1.19,0,0,1,.14.48,1,1,0,0,1-.38.76,1.21,1.21,0,0,1-.82.34h-7.1a1.76,1.76,0,0,1-1.73-1L94.46,73.76,92,85.38a1.38,1.38,0,0,1-.5.86,1.36,1.36,0,0,1-.89.34H84.14A1,1,0,0,1,83.32,86.24Z"/></svg>